<?xml version="1.0" encoding="utf-8"?>
<!-- Generator: Adobe Illustrator 18.1.0, SVG Export Plug-In . SVG Version: 6.00 Build 0)  -->
<svg version="1.1" id="Layer_1" xmlns="http://www.w3.org/2000/svg" xmlns:xlink="http://www.w3.org/1999/xlink" x="0px" y="0px"
	 viewBox="0 0 50 50" enable-background="new 0 0 50 50" xml:space="preserve">
<path fill="#333333" d="M0,0h50v50H0V0z M32.7,18.8L32.7,18.8c0.4,0,0.8,0,1.3,0c0.5,0,1-0.5,1-1c0-0.8,0-1.6,0-2.4c0-0.6-0.5-1-1-1
	c-0.8,0-1.6,0-2.4,0c-0.6,0-1,0.5-1,1c0,0.8,0,1.6,0,2.4c0,0.1,0,0.2,0.1,0.4c0.1,0.4,0.5,0.7,1,0.7C32,18.8,32.3,18.8,32.7,18.8z
	 M25,19.8c-2.8,0-5.1,2.3-5.2,5.1c0,2.9,2.3,5.2,5,5.2c2.9,0.1,5.2-2.2,5.3-5C30.2,22.2,27.9,19.8,25,19.8z M15,22.6L15,22.6
	c0,3.8,0,7.6,0,11.4c0,0.5,0.5,1,1,1c6,0,11.9,0,17.9,0c0.5,0,1-0.5,1-1c0-3.8,0-7.5,0-11.3v-0.1h-2.4c0.3,1.1,0.4,2.2,0.3,3.3
	c-0.1,1.1-0.5,2.2-1.1,3.2c-0.6,1-1.4,1.8-2.3,2.4c-2.5,1.7-5.7,1.8-8.3,0.4c-1.3-0.7-2.3-1.8-3.1-3.1c-1.1-2-1.2-4.1-0.6-6.2
	C16.7,22.6,15.9,22.6,15,22.6z M35.2,37.7c0.1,0,0.3,0,0.4-0.1c1-0.2,1.9-1.1,2.1-2.1c0-0.1,0-0.2,0.1-0.3V14.8c0-0.1,0-0.2-0.1-0.3
	c-0.2-1.1-1.2-2-2.3-2.2c0,0-0.1,0-0.1,0H14.8c-0.1,0-0.2,0-0.4,0.1c-1.1,0.3-2,1.2-2.1,2.3c0,0,0,0.1,0,0.1v20.4
	c0,0.1,0,0.3,0.1,0.4c0.2,1.1,1.2,2,2.3,2.1c0.1,0,0.1,0,0.2,0L35.2,37.7L35.2,37.7z"/>
</svg>
