<?xml version="1.0" encoding="utf-8"?>
<!-- Generator: Adobe Illustrator 18.1.0, SVG Export Plug-In . SVG Version: 6.00 Build 0)  -->
<svg version="1.1" id="Layer_1" xmlns="http://www.w3.org/2000/svg" xmlns:xlink="http://www.w3.org/1999/xlink" x="0px" y="0px"
	 viewBox="0 0 50 50" enable-background="new 0 0 50 50" xml:space="preserve">
<path fill="#333333" d="M-68.8-11.7h50v50h-50V-11.7z M-36.1,7.1L-36.1,7.1c0.4,0,0.8,0,1.3,0c0.5,0,1-0.5,1-1c0-0.8,0-1.6,0-2.4
	c0-0.6-0.5-1-1-1c-0.8,0-1.6,0-2.4,0c-0.6,0-1,0.5-1,1c0,0.8,0,1.6,0,2.4c0,0.1,0,0.2,0.1,0.4c0.1,0.4,0.5,0.7,1,0.7
	C-36.8,7.1-36.4,7.1-36.1,7.1z M-43.8,8.1c-2.8,0-5.1,2.3-5.2,5.1c0,2.9,2.3,5.2,5,5.2c2.9,0.1,5.2-2.2,5.3-5
	C-38.6,10.5-40.9,8.1-43.8,8.1z M-53.7,10.9L-53.7,10.9c0,3.8,0,7.6,0,11.4c0,0.5,0.5,1,1,1c6,0,11.9,0,17.9,0c0.5,0,1-0.5,1-1
	c0-3.8,0-7.5,0-11.3v-0.1h-2.4c0.3,1.1,0.4,2.2,0.3,3.3s-0.5,2.2-1.1,3.2c-0.6,1-1.4,1.8-2.3,2.4c-2.5,1.7-5.7,1.8-8.3,0.4
	c-1.3-0.7-2.3-1.8-3.1-3.1c-1.1-2-1.2-4.1-0.6-6.2C-52.1,10.9-52.9,10.9-53.7,10.9z M-33.6,26c0.1,0,0.3,0,0.4-0.1
	c1-0.2,1.9-1.1,2.1-2.1c0-0.1,0-0.2,0.1-0.3V3.1c0-0.1,0-0.2-0.1-0.3c-0.2-1.1-1.2-2-2.3-2.2c0,0-0.1,0-0.1,0H-54
	c-0.1,0-0.2,0-0.4,0.1c-1.1,0.3-2,1.2-2.1,2.3c0,0,0,0.1,0,0.1v20.4c0,0.1,0,0.3,0.1,0.4c0.2,1.1,1.2,2,2.3,2.1c0.1,0,0.1,0,0.2,0
	L-33.6,26L-33.6,26z"/>
<path fill="#333333" d="M39,36.8V27c0-5.2-2.8-7.7-6.5-7.7c-3,0-4.3,1.7-5.1,2.8v-2.4h-5.7c0.1,1.6,0,17,0,17h5.7v-9.5
	c0-0.5,0-1,0.2-1.4c0.4-1,1.3-2.1,2.9-2.1c2,0,2.9,1.6,2.9,3.8v9.1H39z M15.8,17.4c2,0,3.2-1.3,3.2-2.9c0-1.7-1.2-2.9-3.2-2.9
	s-3.2,1.3-3.2,2.9C12.6,16.1,13.9,17.4,15.8,17.4L15.8,17.4z M18.6,36.8v-17H13v17H18.6z M0,0h50v50H0V0z"/>
</svg>
