<?xml version="1.0" encoding="utf-8"?>
<!-- Generator: Adobe Illustrator 18.1.0, SVG Export Plug-In . SVG Version: 6.00 Build 0)  -->
<svg version="1.1" id="Layer_1" xmlns="http://www.w3.org/2000/svg" xmlns:xlink="http://www.w3.org/1999/xlink" x="0px" y="0px"
	 viewBox="0 0 50 50" enable-background="new 0 0 50 50" xml:space="preserve">
<path fill="#333333" d="M-68.8-11.7h50v50h-50V-11.7z M-36.1,7.1L-36.1,7.1c0.4,0,0.8,0,1.3,0c0.5,0,1-0.5,1-1c0-0.8,0-1.6,0-2.4
	c0-0.6-0.5-1-1-1c-0.8,0-1.6,0-2.4,0c-0.6,0-1,0.5-1,1c0,0.8,0,1.6,0,2.4c0,0.1,0,0.2,0.1,0.4c0.1,0.4,0.5,0.7,1,0.7
	C-36.8,7.1-36.4,7.1-36.1,7.1z M-43.8,8.1c-2.8,0-5.1,2.3-5.2,5.1c0,2.9,2.3,5.2,5,5.2c2.9,0.1,5.2-2.2,5.3-5
	C-38.6,10.5-40.9,8.1-43.8,8.1z M-53.7,10.9L-53.7,10.9c0,3.8,0,7.6,0,11.4c0,0.5,0.5,1,1,1c6,0,11.9,0,17.9,0c0.5,0,1-0.5,1-1
	c0-3.8,0-7.5,0-11.3v-0.1h-2.4c0.3,1.1,0.4,2.2,0.3,3.3s-0.5,2.2-1.1,3.2c-0.6,1-1.4,1.8-2.3,2.4c-2.5,1.7-5.7,1.8-8.3,0.4
	c-1.3-0.7-2.3-1.8-3.1-3.1c-1.1-2-1.2-4.1-0.6-6.2C-52.1,10.9-52.9,10.9-53.7,10.9z M-33.6,26c0.1,0,0.3,0,0.4-0.1
	c1-0.2,1.9-1.1,2.1-2.1c0-0.1,0-0.2,0.1-0.3V3.1c0-0.1,0-0.2-0.1-0.3c-0.2-1.1-1.2-2-2.3-2.2c0,0-0.1,0-0.1,0H-54
	c-0.1,0-0.2,0-0.4,0.1c-1.1,0.3-2,1.2-2.1,2.3c0,0,0,0.1,0,0.1v20.4c0,0.1,0,0.3,0.1,0.4c0.2,1.1,1.2,2,2.3,2.1c0.1,0,0.1,0,0.2,0
	L-33.6,26L-33.6,26z"/>
<path fill="#333333" d="M-35.8,79.2v-9.8c0-5.2-2.8-7.7-6.5-7.7c-3,0-4.3,1.7-5.1,2.8v-2.4h-5.7c0.1,1.6,0,17,0,17h5.7v-9.5
	c0-0.5,0-1,0.2-1.4c0.4-1,1.3-2.1,2.9-2.1c2,0,2.9,1.6,2.9,3.8v9.1H-35.8z M-59.1,59.9c2,0,3.2-1.3,3.2-2.9c0-1.7-1.2-2.9-3.2-2.9
	c-1.9,0-3.2,1.3-3.2,2.9C-62.2,58.6-61,59.9-59.1,59.9L-59.1,59.9z M-56.2,79.2v-17h-5.7v17H-56.2z M-74.9,42.5h50v50h-50V42.5z"/>
<path fill="#333333" d="M28.5,15.2c-2.2,0.8-3.6,2.8-3.4,5.1l0.1,0.9l-0.9-0.1c-3.2-0.4-6-1.8-8.3-4.1l-1.2-1.1l-0.3,0.8
	c-0.6,1.9-0.2,3.9,1.1,5.2c0.7,0.7,0.5,0.8-0.7,0.4c-0.4-0.1-0.8-0.2-0.8-0.2c-0.1,0.1,0.3,1.7,0.6,2.4c0.5,0.9,1.4,1.7,2.4,2.3
	l0.9,0.4l-1,0c-1,0-1,0-0.9,0.4c0.3,1.1,1.7,2.4,3.3,2.9l1.1,0.4l-0.9,0.6c-1.4,0.8-3,1.3-4.7,1.3c-0.8,0-1.4,0.1-1.4,0.1
	c0,0.2,2.1,1.2,3.4,1.6c3.7,1.1,8.1,0.7,11.5-1.3c2.4-1.4,4.7-4.2,5.8-6.9c0.6-1.4,1.2-4,1.2-5.3c0-0.8,0.1-0.9,1-1.9
	c0.6-0.6,1.1-1.2,1.2-1.4c0.2-0.3,0.2-0.3-0.7,0c-1.5,0.5-1.7,0.5-1-0.3c0.5-0.6,1.2-1.6,1.2-1.9c0-0.1-0.3,0-0.6,0.2
	c-0.3,0.2-1,0.4-1.5,0.6l-0.9,0.3L33,15.9c-0.5-0.3-1.1-0.7-1.5-0.8C30.6,14.9,29.3,15,28.5,15.2z M0,0h50v50H0V0z"/>
</svg>
